<svg width="372.25" height="40.9" viewBox="0 0 372.25 40.9" xmlns="http://www.w3.org/2000/svg"><g id="svgGroup" stroke-linecap="round" fill-rule="evenodd" font-size="9pt" stroke="#000" stroke-width="0.25mm" fill="black" style="stroke:#000;stroke-width:0.25mm;fill:black"><path d="M 219.65 2.25 L 218.45 9.15 L 217.1 9.15 L 217.4 3.65 L 207.8 4.1 L 205.8 15.4 L 213.3 15.6 L 213.1 16.95 L 205.5 17.15 L 203.25 30.1 L 213.6 30.6 L 215.3 24.55 L 216.6 24.6 L 215.35 31.95 L 197.85 31.95 L 198 30.9 L 201.05 30.3 L 205.6 3.9 L 202.65 3.3 L 202.85 2.25 L 219.65 2.25 Z M 189.3 2.55 L 189.25 2.6 L 189.3 2.6 L 187.85 9.5 L 186.55 9.5 L 186.9 4.3 A 23.805 23.805 0 0 0 185.776 4.089 Q 185.152 3.987 184.449 3.899 A 44.337 44.337 0 0 0 183.575 3.8 Q 181.65 3.6 180.65 3.6 A 1.429 1.429 0 0 0 180.242 3.668 Q 179.85 3.787 179.322 4.11 A 9.445 9.445 0 0 0 178.775 4.475 Q 177.55 5.35 176.575 6.7 A 5.774 5.774 0 0 0 175.953 7.776 A 4.047 4.047 0 0 0 175.6 9.4 Q 175.6 11.05 176.675 12.225 A 12.196 12.196 0 0 0 177.43 12.973 Q 178.221 13.698 179.395 14.589 A 49.521 49.521 0 0 0 180.15 15.15 A 30.283 30.283 0 0 0 181.158 15.859 A 25.605 25.605 0 0 0 181.6 16.15 A 51.547 51.547 0 0 1 183.245 17.32 Q 184.728 18.423 185.682 19.337 A 14.18 14.18 0 0 1 185.9 19.55 A 5.254 5.254 0 0 1 186.865 20.845 A 4.298 4.298 0 0 1 187.35 22.85 Q 187.35 24.25 186.8 26 A 12.092 12.092 0 0 1 185.648 27.805 Q 185.029 28.617 184.223 29.445 A 23.377 23.377 0 0 1 183.45 30.2 A 14.67 14.67 0 0 1 182.363 31.128 Q 181.229 31.997 180.311 32.248 A 2.697 2.697 0 0 1 179.6 32.35 A 26.242 26.242 0 0 1 178.788 32.336 Q 177.859 32.307 176.559 32.218 A 119.65 119.65 0 0 1 175.3 32.125 A 206.799 206.799 0 0 1 172.588 31.894 A 150.655 150.655 0 0 1 170.15 31.65 L 171.7 24.25 L 173.05 24.25 L 172.6 29.85 Q 174.55 30.15 176.8 30.4 Q 178.583 30.598 179.644 30.639 A 13.165 13.165 0 0 0 180.15 30.65 A 1.132 1.132 0 0 0 180.551 30.565 Q 181.126 30.345 181.975 29.55 A 10.533 10.533 0 0 0 183.346 27.97 A 13.295 13.295 0 0 0 184.075 26.825 A 7.477 7.477 0 0 0 184.739 25.307 A 5.833 5.833 0 0 0 185 23.6 A 3.555 3.555 0 0 0 183.951 21.026 L 183.95 21.025 A 11.238 11.238 0 0 0 183.188 20.321 Q 182.344 19.604 181.076 18.738 A 43.818 43.818 0 0 0 180.65 18.45 L 178.75 17.15 Q 176.2 15.295 174.875 13.913 A 12.214 12.214 0 0 1 174.675 13.7 Q 173.35 12.25 173.35 10.35 A 7.058 7.058 0 0 1 173.663 8.311 A 9.16 9.16 0 0 1 174.15 7.05 A 11.486 11.486 0 0 1 175.094 5.946 Q 175.618 5.401 176.282 4.82 A 29.225 29.225 0 0 1 177.75 3.625 Q 180.2 1.75 181.15 1.75 Q 182.4 1.75 184.95 2 Q 187.5 2.25 189.3 2.55 Z M 111.5 17.2 L 109.15 30.35 L 111.8 30.6 L 111.65 31.55 A 213.109 213.109 0 0 1 110.847 31.749 Q 108.757 32.263 108.099 32.371 A 1.781 1.781 0 0 1 107.85 32.4 Q 107.65 32.4 107.25 31.975 A 3.86 3.86 0 0 1 107.097 31.803 Q 106.85 31.507 106.85 31.35 L 109.55 16.35 A 21.023 21.023 0 0 0 109.682 15.56 Q 109.788 14.835 109.799 14.319 A 5.513 5.513 0 0 0 109.8 14.2 Q 109.8 12.7 109.125 12 A 1.955 1.955 0 0 0 108.426 11.548 Q 107.802 11.3 106.85 11.3 A 0.179 0.179 0 0 0 106.758 11.35 Q 106.393 11.646 104.968 13.717 A 117.322 117.322 0 0 0 104.45 14.475 A 376.383 376.383 0 0 0 100.169 20.944 A 413.118 413.118 0 0 0 100.1 21.05 L 98.6 23.35 L 97.55 29.4 Q 97.516 29.501 97.505 29.647 A 2.042 2.042 0 0 0 97.5 29.8 Q 97.5 30.3 97.85 30.525 Q 98.163 30.727 98.798 30.868 A 7.118 7.118 0 0 0 98.95 30.9 L 98.9 31.65 A 14.416 14.416 0 0 1 98.408 31.804 Q 98.185 31.869 97.933 31.937 A 30.404 30.404 0 0 1 97.4 32.075 A 59.582 59.582 0 0 1 96.975 32.18 Q 96.563 32.28 96.256 32.346 A 15.478 15.478 0 0 1 96 32.4 Q 95.8 32.4 95.4 31.975 A 3.86 3.86 0 0 1 95.247 31.803 Q 95 31.507 95 31.35 L 98.5 11.45 L 95.9 11.2 L 96.05 10.25 A 213.109 213.109 0 0 1 96.853 10.051 Q 98.943 9.537 99.601 9.429 A 1.781 1.781 0 0 1 99.85 9.4 A 0.189 0.189 0 0 1 99.931 9.423 Q 100.052 9.483 100.26 9.698 A 5.067 5.067 0 0 1 100.4 9.85 Q 100.793 10.292 100.752 10.445 A 0.098 0.098 0 0 1 100.75 10.45 L 99.05 20.65 L 99.3 20.65 A 2964.064 2964.064 0 0 1 99.777 19.869 Q 100.326 18.972 100.634 18.47 A 275.001 275.001 0 0 1 100.8 18.2 A 567.19 567.19 0 0 1 103.519 13.691 A 505.269 505.269 0 0 1 104.4 12.25 A 87.115 87.115 0 0 1 104.814 11.582 Q 106.181 9.4 106.4 9.4 Q 109.3 9.4 110.575 10.4 Q 111.85 11.4 111.85 14 Q 111.85 14.915 111.608 16.521 A 44.152 44.152 0 0 1 111.5 17.2 Z M 238.45 17.2 L 236.1 30.35 L 238.75 30.6 L 238.6 31.55 A 213.109 213.109 0 0 1 237.797 31.749 Q 235.707 32.263 235.049 32.371 A 1.781 1.781 0 0 1 234.8 32.4 Q 234.6 32.4 234.2 31.975 A 3.86 3.86 0 0 1 234.047 31.803 Q 233.8 31.507 233.8 31.35 L 236.5 16.35 A 21.023 21.023 0 0 0 236.632 15.56 Q 236.738 14.835 236.749 14.319 A 5.513 5.513 0 0 0 236.75 14.2 Q 236.75 12.7 236.075 12 A 1.955 1.955 0 0 0 235.376 11.548 Q 234.752 11.3 233.8 11.3 A 0.179 0.179 0 0 0 233.708 11.35 Q 233.343 11.646 231.918 13.717 A 117.322 117.322 0 0 0 231.4 14.475 A 376.383 376.383 0 0 0 227.119 20.944 A 413.118 413.118 0 0 0 227.05 21.05 L 225.55 23.35 L 224.5 29.4 Q 224.466 29.501 224.455 29.647 A 2.042 2.042 0 0 0 224.45 29.8 Q 224.45 30.3 224.8 30.525 Q 225.113 30.727 225.748 30.868 A 7.118 7.118 0 0 0 225.9 30.9 L 225.85 31.65 A 14.416 14.416 0 0 1 225.358 31.804 Q 225.135 31.869 224.883 31.937 A 30.404 30.404 0 0 1 224.35 32.075 A 59.582 59.582 0 0 1 223.925 32.18 Q 223.513 32.28 223.206 32.346 A 15.478 15.478 0 0 1 222.95 32.4 Q 222.75 32.4 222.35 31.975 A 3.86 3.86 0 0 1 222.197 31.803 Q 221.95 31.507 221.95 31.35 L 225.45 11.45 L 222.85 11.2 L 223 10.25 A 213.109 213.109 0 0 1 223.803 10.051 Q 225.893 9.537 226.551 9.429 A 1.781 1.781 0 0 1 226.8 9.4 A 0.189 0.189 0 0 1 226.881 9.423 Q 227.002 9.483 227.21 9.698 A 5.067 5.067 0 0 1 227.35 9.85 Q 227.743 10.292 227.702 10.445 A 0.098 0.098 0 0 1 227.7 10.45 L 226 20.65 L 226.25 20.65 A 2964.064 2964.064 0 0 1 226.727 19.869 Q 227.276 18.972 227.584 18.47 A 275.001 275.001 0 0 1 227.75 18.2 A 567.19 567.19 0 0 1 230.469 13.691 A 505.269 505.269 0 0 1 231.35 12.25 A 87.115 87.115 0 0 1 231.764 11.582 Q 233.131 9.4 233.35 9.4 Q 236.25 9.4 237.525 10.4 Q 238.8 11.4 238.8 14 Q 238.8 14.915 238.558 16.521 A 44.152 44.152 0 0 1 238.45 17.2 Z M 19.4 2.25 L 18 9.55 L 16.65 9.55 L 17 4.1 Q 14.7 3.75 12.25 3.75 A 4.346 4.346 0 0 0 10.935 3.968 Q 9.977 4.272 8.9 5 A 7.466 7.466 0 0 0 7.836 5.796 Q 7.331 6.243 6.813 6.829 A 17.429 17.429 0 0 0 6 7.825 Q 4.91 9.26 4.045 11.513 A 27.124 27.124 0 0 0 3.425 13.325 A 22.78 22.78 0 0 0 2.69 16.682 Q 2.44 18.396 2.374 20.353 A 42.723 42.723 0 0 0 2.35 21.8 Q 2.35 25.715 3.464 27.787 A 5.539 5.539 0 0 0 3.725 28.225 A 5.685 5.685 0 0 0 4.647 29.316 A 3.631 3.631 0 0 0 7.15 30.3 L 12.75 30.35 L 14.4 24.45 L 15.7 24.5 L 14.55 31.75 Q 12.75 31.95 10.375 32.15 Q 8.557 32.303 7.339 32.368 A 42.075 42.075 0 0 1 6.65 32.4 A 5.691 5.691 0 0 1 4.237 31.905 Q 2.988 31.328 2.103 30.08 A 7.465 7.465 0 0 1 1.675 29.4 A 12.448 12.448 0 0 1 0.419 26.025 Q 0 24.15 0 21.9 Q 0 17.9 1.075 13.925 A 29.621 29.621 0 0 1 2.052 10.922 Q 2.841 8.894 3.85 7.35 Q 5.55 5.45 8.325 3.6 Q 11.1 1.75 12.25 1.75 A 87.6 87.6 0 0 1 12.877 1.78 Q 13.576 1.815 14.495 1.871 A 296 296 0 0 1 15.375 1.925 Q 17.35 2.05 19.4 2.25 Z M 135.1 1 L 130 30.35 L 132.6 30.6 L 132.45 31.55 L 130.55 32 A 148.622 148.622 0 0 1 130.149 32.094 Q 128.831 32.4 128.7 32.4 A 0.193 0.193 0 0 1 128.621 32.378 Q 128.46 32.303 128.136 31.962 A 6.99 6.99 0 0 1 128.125 31.95 Q 127.706 31.506 127.749 31.354 A 0.093 0.093 0 0 1 127.75 31.35 L 129.45 21.25 L 129.2 21.25 L 128.15 23.05 A 436.16 436.16 0 0 1 126.912 25.241 Q 122.838 32.4 122.4 32.4 A 8.373 8.373 0 0 1 120.787 32.256 Q 118.894 31.883 117.975 30.55 A 6.137 6.137 0 0 1 117.198 28.916 Q 116.7 27.35 116.7 25.1 A 24.68 24.68 0 0 1 117.066 20.776 A 21.06 21.06 0 0 1 117.55 18.675 Q 118.4 15.7 119.7 13.7 A 12.62 12.62 0 0 1 120.819 12.643 Q 121.461 12.103 122.251 11.555 A 26.592 26.592 0 0 1 123.325 10.85 Q 125.65 9.4 126.5 9.4 A 6.281 6.281 0 0 1 126.977 9.423 Q 128.132 9.514 130.911 9.969 A 176.746 176.746 0 0 1 131.4 10.05 L 132.75 2.05 L 130.1 1.75 L 130.25 0.85 A 189.968 189.968 0 0 1 131.054 0.651 Q 133.176 0.13 133.852 0.026 A 1.824 1.824 0 0 1 134.1 0 Q 134.277 0 134.628 0.351 A 4.579 4.579 0 0 1 134.725 0.45 A 5.701 5.701 0 0 1 134.854 0.591 Q 135.142 0.917 135.1 1 Z M 43.55 31.7 L 42.3 38.8 L 44.95 39.1 L 44.8 40.05 A 213.109 213.109 0 0 1 43.997 40.249 Q 41.907 40.763 41.249 40.871 A 1.781 1.781 0 0 1 41 40.9 Q 40.823 40.9 40.472 40.549 A 4.579 4.579 0 0 1 40.375 40.45 Q 39.956 40.006 39.999 39.854 A 0.093 0.093 0 0 1 40 39.85 L 44.95 11.45 L 42.35 11.2 L 42.5 10.25 L 44.45 9.8 L 46.25 9.4 A 0.275 0.275 0 0 1 46.368 9.431 Q 46.525 9.507 46.755 9.769 A 3.986 3.986 0 0 1 46.825 9.85 A 5.644 5.644 0 0 1 46.952 10.008 Q 47.14 10.251 47.186 10.38 A 0.218 0.218 0 0 1 47.2 10.45 L 45.45 20.5 L 45.8 20.5 L 46.35 19.55 A 649.951 649.951 0 0 1 47.716 17.171 Q 52.2 9.4 52.55 9.4 A 8.657 8.657 0 0 1 54.156 9.538 Q 56.099 9.906 57.025 11.25 A 6.137 6.137 0 0 1 57.802 12.884 Q 58.3 14.45 58.3 16.7 A 24.68 24.68 0 0 1 57.934 21.024 A 21.06 21.06 0 0 1 57.45 23.125 Q 56.726 25.658 55.676 27.449 A 12.347 12.347 0 0 1 55.3 28.05 Q 54.392 29.067 52.916 30.124 A 25.616 25.616 0 0 1 51.725 30.925 A 24.528 24.528 0 0 1 50.776 31.5 Q 49.416 32.278 48.706 32.384 A 1.41 1.41 0 0 1 48.5 32.4 A 7.965 7.965 0 0 1 47.836 32.367 Q 46.768 32.275 44.823 31.933 A 100.726 100.726 0 0 1 43.55 31.7 Z M 294.2 31.7 L 292.95 38.8 L 295.6 39.1 L 295.45 40.05 A 213.109 213.109 0 0 1 294.647 40.249 Q 292.557 40.763 291.899 40.871 A 1.781 1.781 0 0 1 291.65 40.9 Q 291.473 40.9 291.122 40.549 A 4.579 4.579 0 0 1 291.025 40.45 Q 290.606 40.006 290.649 39.854 A 0.093 0.093 0 0 1 290.65 39.85 L 295.6 11.45 L 293 11.2 L 293.15 10.25 L 295.1 9.8 L 296.9 9.4 A 0.275 0.275 0 0 1 297.018 9.431 Q 297.175 9.507 297.405 9.769 A 3.986 3.986 0 0 1 297.475 9.85 A 5.644 5.644 0 0 1 297.602 10.008 Q 297.79 10.251 297.836 10.38 A 0.218 0.218 0 0 1 297.85 10.45 L 296.1 20.5 L 296.45 20.5 L 297 19.55 A 649.951 649.951 0 0 1 298.366 17.171 Q 302.85 9.4 303.2 9.4 A 8.657 8.657 0 0 1 304.806 9.538 Q 306.749 9.906 307.675 11.25 A 6.137 6.137 0 0 1 308.452 12.884 Q 308.95 14.45 308.95 16.7 A 24.68 24.68 0 0 1 308.584 21.024 A 21.06 21.06 0 0 1 308.1 23.125 Q 307.376 25.658 306.326 27.449 A 12.347 12.347 0 0 1 305.95 28.05 Q 305.042 29.067 303.566 30.124 A 25.616 25.616 0 0 1 302.375 30.925 A 24.528 24.528 0 0 1 301.426 31.5 Q 300.066 32.278 299.356 32.384 A 1.41 1.41 0 0 1 299.15 32.4 A 7.965 7.965 0 0 1 298.486 32.367 Q 297.418 32.275 295.473 31.933 A 100.726 100.726 0 0 1 294.2 31.7 Z M 354.9 10.3 L 354.85 10.35 L 354.9 10.35 L 353.75 15.85 L 352.75 15.85 L 352.6 11.65 A 23.892 23.892 0 0 0 351.022 11.314 A 29.195 29.195 0 0 0 350 11.15 Q 348.945 10.999 348.315 10.962 A 6.279 6.279 0 0 0 347.95 10.95 Q 347.532 10.95 346.662 11.532 A 10.188 10.188 0 0 0 346.525 11.625 Q 345.55 12.3 344.8 13.225 A 4.261 4.261 0 0 0 344.389 13.824 Q 344.198 14.164 344.115 14.494 A 2.06 2.06 0 0 0 344.05 15 A 2.745 2.745 0 0 0 344.806 16.901 A 3.635 3.635 0 0 0 344.925 17.025 Q 345.8 17.9 347.75 19.3 A 20.155 20.155 0 0 0 347.927 19.425 Q 348.409 19.761 349.75 20.675 A 13.785 13.785 0 0 1 350.967 21.601 Q 351.766 22.288 352.3 23 Q 353.148 24.131 353.197 25.261 A 3.203 3.203 0 0 1 353.2 25.4 A 5.739 5.739 0 0 1 353.051 26.727 A 4.901 4.901 0 0 1 352.8 27.5 A 7.163 7.163 0 0 1 352.148 28.574 Q 351.769 29.099 351.257 29.652 A 17.64 17.64 0 0 1 350.25 30.65 A 13.244 13.244 0 0 1 349.424 31.353 Q 348.597 31.997 347.952 32.225 A 1.967 1.967 0 0 1 347.3 32.35 A 11.981 11.981 0 0 1 346.681 32.331 Q 345.636 32.276 343.784 32.06 A 106.081 106.081 0 0 1 343.7 32.05 Q 341.15 31.75 339.4 31.45 L 340.65 24.95 L 341.7 24.95 L 341.8 30 A 33.833 33.833 0 0 0 343.281 30.281 A 45.299 45.299 0 0 0 344.925 30.525 A 49.867 49.867 0 0 0 345.727 30.623 Q 346.838 30.75 347.4 30.75 Q 347.8 30.75 348.7 29.95 A 9.28 9.28 0 0 0 349.999 28.517 A 10.744 10.744 0 0 0 350.325 28.05 Q 350.793 27.34 350.959 26.735 A 2.402 2.402 0 0 0 351.05 26.1 Q 351.05 24.95 349.85 23.8 Q 348.65 22.65 346.35 21.2 A 22.67 22.67 0 0 1 344.999 20.243 Q 344.384 19.769 343.891 19.309 A 10.218 10.218 0 0 1 343.2 18.6 A 4.618 4.618 0 0 1 342.429 17.416 A 3.837 3.837 0 0 1 342.1 15.85 Q 342.1 14.6 342.7 13.45 A 10.243 10.243 0 0 1 343.536 12.491 Q 344.334 11.675 345.475 10.8 A 19.888 19.888 0 0 1 346.12 10.324 Q 347.146 9.601 347.718 9.444 A 1.079 1.079 0 0 1 348 9.4 A 12.954 12.954 0 0 1 348.736 9.424 Q 349.46 9.465 350.46 9.58 A 58.785 58.785 0 0 1 351.425 9.7 A 62.573 62.573 0 0 1 352.495 9.85 Q 353.647 10.022 354.445 10.195 A 14.534 14.534 0 0 1 354.9 10.3 Z M 289.65 9.85 L 288.65 16.5 L 287.6 16.5 L 287.4 11.7 A 10.603 10.603 0 0 0 287.191 11.598 Q 286.772 11.4 286.65 11.4 A 0.214 0.214 0 0 0 286.539 11.473 Q 286.216 11.788 285.169 13.446 A 78.816 78.816 0 0 0 285.025 13.675 A 325.973 325.973 0 0 0 283.663 15.869 A 254.672 254.672 0 0 0 282.425 17.9 A 388.459 388.459 0 0 1 281.864 18.828 Q 281.175 19.964 280.663 20.789 A 118.658 118.658 0 0 1 280.5 21.05 Q 279.434 22.871 279.157 23.311 A 4.169 4.169 0 0 1 279.1 23.4 L 278.1 29.4 A 1.468 1.468 0 0 0 278.07 29.564 Q 278.05 29.713 278.05 29.9 A 1.291 1.291 0 0 0 278.071 30.139 Q 278.129 30.446 278.35 30.575 A 1.293 1.293 0 0 0 278.534 30.661 Q 278.848 30.782 279.442 30.89 A 12.013 12.013 0 0 0 279.5 30.9 L 279.45 31.65 A 14.416 14.416 0 0 1 278.958 31.804 Q 278.735 31.869 278.483 31.937 A 30.404 30.404 0 0 1 277.95 32.075 A 59.582 59.582 0 0 1 277.525 32.18 Q 277.113 32.28 276.806 32.346 A 15.478 15.478 0 0 1 276.55 32.4 Q 276.35 32.4 275.95 31.975 A 3.86 3.86 0 0 1 275.797 31.803 Q 275.55 31.507 275.55 31.35 L 279.05 11.45 L 276.45 11.2 L 276.6 10.25 A 242.891 242.891 0 0 1 277.402 10.051 Q 280.044 9.4 280.35 9.4 A 0.283 0.283 0 0 1 280.466 9.43 Q 280.653 9.516 280.95 9.85 Q 281.343 10.292 281.302 10.445 A 0.098 0.098 0 0 1 281.3 10.45 L 279.6 20.7 L 279.8 20.7 A 711.922 711.922 0 0 1 281.248 17.993 Q 285.497 10.096 286.266 9.251 A 0.261 0.261 0 0 1 286.4 9.15 Q 286.942 9.15 287.831 9.313 A 17.803 17.803 0 0 1 288.025 9.35 Q 288.698 9.481 289.187 9.656 A 4.147 4.147 0 0 1 289.65 9.85 Z M 327.85 9.85 L 326.85 16.5 L 325.8 16.5 L 325.6 11.7 A 10.603 10.603 0 0 0 325.391 11.598 Q 324.972 11.4 324.85 11.4 A 0.214 0.214 0 0 0 324.739 11.473 Q 324.416 11.788 323.369 13.446 A 78.816 78.816 0 0 0 323.225 13.675 A 325.973 325.973 0 0 0 321.863 15.869 A 254.672 254.672 0 0 0 320.625 17.9 A 388.459 388.459 0 0 1 320.064 18.828 Q 319.375 19.964 318.863 20.789 A 118.658 118.658 0 0 1 318.7 21.05 Q 317.634 22.871 317.357 23.311 A 4.169 4.169 0 0 1 317.3 23.4 L 316.3 29.4 A 1.468 1.468 0 0 0 316.27 29.564 Q 316.25 29.713 316.25 29.9 A 1.291 1.291 0 0 0 316.271 30.139 Q 316.329 30.446 316.55 30.575 A 1.293 1.293 0 0 0 316.734 30.661 Q 317.048 30.782 317.642 30.89 A 12.013 12.013 0 0 0 317.7 30.9 L 317.65 31.65 A 14.416 14.416 0 0 1 317.158 31.804 Q 316.935 31.869 316.683 31.937 A 30.404 30.404 0 0 1 316.15 32.075 A 59.582 59.582 0 0 1 315.725 32.18 Q 315.313 32.28 315.006 32.346 A 15.478 15.478 0 0 1 314.75 32.4 Q 314.55 32.4 314.15 31.975 A 3.86 3.86 0 0 1 313.997 31.803 Q 313.75 31.507 313.75 31.35 L 317.25 11.45 L 314.65 11.2 L 314.8 10.25 A 242.891 242.891 0 0 1 315.602 10.051 Q 318.244 9.4 318.55 9.4 A 0.283 0.283 0 0 1 318.666 9.43 Q 318.853 9.516 319.15 9.85 Q 319.543 10.292 319.502 10.445 A 0.098 0.098 0 0 1 319.5 10.45 L 317.8 20.7 L 318 20.7 A 711.922 711.922 0 0 1 319.448 17.993 Q 323.697 10.096 324.466 9.251 A 0.261 0.261 0 0 1 324.6 9.15 Q 325.142 9.15 326.031 9.313 A 17.803 17.803 0 0 1 326.225 9.35 Q 326.898 9.481 327.387 9.656 A 4.147 4.147 0 0 1 327.85 9.85 Z M 89.75 10.45 L 86.3 30.35 L 88.7 30.6 L 88.6 31.55 L 86.5 32.05 A 43.465 43.465 0 0 1 86.085 32.169 Q 85.364 32.371 85.15 32.396 A 0.446 0.446 0 0 1 85.1 32.4 A 0.193 0.193 0 0 1 85.021 32.378 Q 84.86 32.303 84.536 31.962 A 6.99 6.99 0 0 1 84.525 31.95 Q 84.106 31.506 84.149 31.354 A 0.093 0.093 0 0 1 84.15 31.35 L 85.75 21.25 L 85.5 21.25 L 84.45 23.05 A 436.16 436.16 0 0 1 83.212 25.241 Q 79.138 32.4 78.7 32.4 A 8.373 8.373 0 0 1 77.087 32.256 Q 75.194 31.883 74.275 30.55 A 6.137 6.137 0 0 1 73.498 28.916 Q 73 27.35 73 25.1 A 24.68 24.68 0 0 1 73.366 20.776 A 21.06 21.06 0 0 1 73.85 18.675 Q 74.7 15.7 76 13.7 A 12.62 12.62 0 0 1 77.119 12.643 Q 77.761 12.103 78.551 11.555 A 26.592 26.592 0 0 1 79.625 10.85 Q 81.95 9.4 82.8 9.4 Q 83.669 9.4 85.774 9.726 A 70.276 70.276 0 0 1 85.925 9.75 Q 87.629 10.018 88.966 10.286 A 45.653 45.653 0 0 1 89.75 10.45 Z M 149.25 29.675 A 6.75 6.75 0 0 0 151.124 31.215 Q 153.236 32.4 156.5 32.4 A 1.3 1.3 0 0 0 156.533 32.4 Q 157.106 32.385 158.176 31.872 A 15.503 15.503 0 0 0 158.9 31.5 A 24.058 24.058 0 0 0 160.363 30.631 A 30.381 30.381 0 0 0 162.3 29.275 Q 163.394 28.447 164.195 27.687 A 12.897 12.897 0 0 0 165.05 26.8 A 25.471 25.471 0 0 0 166.581 23.494 A 33.708 33.708 0 0 0 167.775 19.675 A 42.867 42.867 0 0 0 167.903 19.153 Q 168.336 17.337 168.56 15.679 A 25.282 25.282 0 0 0 168.8 12.3 A 22.813 22.813 0 0 0 168.798 12 Q 168.663 1.75 159.25 1.75 A 1.78 1.78 0 0 0 159.016 1.766 Q 157.834 1.924 155.3 3.575 A 28.881 28.881 0 0 0 154.566 4.069 Q 153.497 4.814 152.615 5.579 A 16.311 16.311 0 0 0 150.85 7.35 A 14.57 14.57 0 0 0 150.086 8.582 Q 148.892 10.732 148.05 13.775 Q 146.95 17.75 146.95 21.75 A 20.243 20.243 0 0 0 147.051 23.819 Q 147.432 27.52 149.25 29.675 Z M 248.5 11.4 L 245.7 11.4 L 245.95 10.35 L 248.75 9.6 L 250.65 6.35 A 0.544 0.544 0 0 1 250.908 6.421 Q 251.144 6.548 251.4 6.9 L 250.95 9.85 L 256.05 9.85 L 255.75 11.4 L 250.65 11.4 A 2790.692 2790.692 0 0 0 249.908 15.663 Q 248.881 21.588 248.375 24.7 A 245.877 245.877 0 0 0 248.146 26.135 Q 247.7 28.981 247.7 29.55 A 1.743 1.743 0 0 0 247.726 29.864 Q 247.756 30.027 247.82 30.145 A 0.582 0.582 0 0 0 248.25 30.45 A 3.846 3.846 0 0 0 248.6 30.484 Q 249.44 30.538 251.844 30.548 A 282.484 282.484 0 0 0 253 30.55 L 252.85 31.7 Q 251.35 31.95 249.725 32.15 Q 248.1 32.35 247.2 32.4 Q 246.9 32.4 246.125 31.475 Q 245.397 30.606 245.397 30.156 A 0.51 0.51 0 0 1 245.4 30.1 A 30.032 30.032 0 0 1 245.492 29.469 Q 245.932 26.603 248.182 13.28 A 9139.908 9139.908 0 0 1 248.5 11.4 Z M 269.5 29.25 L 269.8 30.35 Q 268.675 30.937 266.762 31.643 A 52.197 52.197 0 0 1 266.675 31.675 A 45.122 45.122 0 0 1 265.988 31.921 Q 264.616 32.4 264.25 32.4 A 8.811 8.811 0 0 1 262.227 32.182 Q 260.75 31.834 259.72 30.929 A 5.375 5.375 0 0 1 259.175 30.375 A 6.838 6.838 0 0 1 257.804 27.719 Q 257.45 26.436 257.45 24.85 A 24.309 24.309 0 0 1 257.914 20.036 A 21.709 21.709 0 0 1 258.275 18.525 A 20.918 20.918 0 0 1 258.992 16.372 Q 259.608 14.827 260.4 13.7 A 12.886 12.886 0 0 1 261.516 12.643 Q 262.563 11.756 264 10.85 A 24.06 24.06 0 0 1 264.939 10.285 Q 266.286 9.52 266.994 9.416 A 1.428 1.428 0 0 1 267.2 9.4 A 10.058 10.058 0 0 1 269.046 9.554 Q 272.119 10.131 272.29 12.87 A 5.302 5.302 0 0 1 272.3 13.2 A 6.068 6.068 0 0 1 271.247 16.595 A 8.174 8.174 0 0 1 270.575 17.475 A 11.251 11.251 0 0 1 268.046 19.604 A 14.925 14.925 0 0 1 265.975 20.675 Q 263.1 21.9 259.85 22.05 A 58.486 58.486 0 0 0 259.806 22.713 Q 259.763 23.43 259.753 23.95 A 15.489 15.489 0 0 0 259.75 24.25 A 11.695 11.695 0 0 0 259.952 26.531 Q 260.668 30.111 263.915 30.462 A 6.849 6.849 0 0 0 264.65 30.5 A 5.943 5.943 0 0 0 265.509 30.432 Q 266.393 30.302 267.525 29.925 A 325.132 325.132 0 0 0 268.12 29.726 Q 269.135 29.385 269.426 29.278 A 3.082 3.082 0 0 0 269.5 29.25 Z M 369.45 29.25 L 369.75 30.35 Q 368.625 30.937 366.712 31.643 A 52.197 52.197 0 0 1 366.625 31.675 A 45.122 45.122 0 0 1 365.938 31.921 Q 364.566 32.4 364.2 32.4 A 8.811 8.811 0 0 1 362.177 32.182 Q 360.7 31.834 359.67 30.929 A 5.375 5.375 0 0 1 359.125 30.375 A 6.838 6.838 0 0 1 357.754 27.719 Q 357.4 26.436 357.4 24.85 A 24.309 24.309 0 0 1 357.864 20.036 A 21.709 21.709 0 0 1 358.225 18.525 A 20.918 20.918 0 0 1 358.942 16.372 Q 359.558 14.827 360.35 13.7 A 12.886 12.886 0 0 1 361.466 12.643 Q 362.513 11.756 363.95 10.85 A 24.06 24.06 0 0 1 364.889 10.285 Q 366.236 9.52 366.944 9.416 A 1.428 1.428 0 0 1 367.15 9.4 A 10.058 10.058 0 0 1 368.996 9.554 Q 372.069 10.131 372.24 12.87 A 5.302 5.302 0 0 1 372.25 13.2 A 6.068 6.068 0 0 1 371.197 16.595 A 8.174 8.174 0 0 1 370.525 17.475 A 11.251 11.251 0 0 1 367.996 19.604 A 14.925 14.925 0 0 1 365.925 20.675 Q 363.05 21.9 359.8 22.05 A 58.486 58.486 0 0 0 359.756 22.713 Q 359.713 23.43 359.703 23.95 A 15.489 15.489 0 0 0 359.7 24.25 A 11.695 11.695 0 0 0 359.902 26.531 Q 360.618 30.111 363.865 30.462 A 6.849 6.849 0 0 0 364.6 30.5 A 5.943 5.943 0 0 0 365.459 30.432 Q 366.343 30.302 367.475 29.925 A 325.132 325.132 0 0 0 368.07 29.726 Q 369.085 29.385 369.376 29.278 A 3.082 3.082 0 0 0 369.45 29.25 Z M 62.8 31.35 L 67.9 2.05 L 65.25 1.75 L 65.4 0.85 A 189.968 189.968 0 0 1 66.204 0.651 Q 68.326 0.13 69.002 0.026 A 1.824 1.824 0 0 1 69.25 0 A 0.193 0.193 0 0 1 69.329 0.022 Q 69.49 0.097 69.814 0.438 A 6.99 6.99 0 0 1 69.825 0.45 A 5.701 5.701 0 0 1 69.954 0.591 Q 70.242 0.917 70.2 1 L 65.1 30.35 L 67.7 30.6 L 67.6 31.55 L 65.6 32 A 518.641 518.641 0 0 1 65.177 32.094 Q 63.945 32.367 63.776 32.396 A 0.222 0.222 0 0 1 63.75 32.4 A 0.2 0.2 0 0 1 63.668 32.377 Q 63.546 32.32 63.34 32.118 A 4.909 4.909 0 0 1 63.2 31.975 A 3.86 3.86 0 0 1 63.047 31.803 Q 62.8 31.507 62.8 31.35 Z M 159.111 29.588 A 16.359 16.359 0 0 0 159.85 29.125 Q 161.249 28.197 162.204 27.365 A 11.202 11.202 0 0 0 163.1 26.5 A 21.053 21.053 0 0 0 164.298 23.796 Q 164.82 22.371 165.235 20.709 A 38.707 38.707 0 0 0 165.5 19.575 A 43.004 43.004 0 0 0 166.115 16.114 Q 166.4 13.984 166.4 12.1 A 15.986 15.986 0 0 0 166.241 9.773 Q 165.892 7.405 164.775 5.875 A 5.165 5.165 0 0 0 161.858 3.925 Q 160.974 3.684 159.908 3.654 A 10.932 10.932 0 0 0 159.6 3.65 A 4.935 4.935 0 0 0 158.189 3.872 Q 157.099 4.197 155.85 5 Q 154.833 5.618 153.776 6.829 A 16.888 16.888 0 0 0 152.975 7.825 A 12.283 12.283 0 0 0 151.925 9.524 Q 151.459 10.423 151.043 11.513 A 27.873 27.873 0 0 0 150.425 13.325 A 22.78 22.78 0 0 0 149.69 16.682 Q 149.44 18.396 149.374 20.353 A 42.723 42.723 0 0 0 149.35 21.8 Q 149.35 26.08 150.9 28.233 A 5.525 5.525 0 0 0 151.025 28.4 Q 152.7 30.55 156.45 30.55 Q 157.477 30.55 159.111 29.588 Z M 24.724 32.237 A 11.726 11.726 0 0 0 26.75 32.4 A 1.462 1.462 0 0 0 27.154 32.326 Q 27.843 32.119 29.207 31.327 A 38.244 38.244 0 0 0 30.125 30.775 A 36.609 36.609 0 0 0 30.996 30.219 Q 32.925 28.948 33.75 28 Q 34.492 26.813 35.085 25.272 A 24.237 24.237 0 0 0 35.825 23 Q 36.65 20 36.65 16.8 A 12.948 12.948 0 0 0 36.617 15.868 Q 36.534 14.714 36.238 13.757 A 6.177 6.177 0 0 0 34.775 11.225 Q 33.486 9.902 31.334 9.488 A 11.322 11.322 0 0 0 29.2 9.3 Q 28.25 9.3 26 10.775 Q 23.75 12.25 22.4 13.7 A 10.859 10.859 0 0 0 21.922 14.444 Q 21.415 15.307 20.992 16.363 A 20.798 20.798 0 0 0 20.275 18.5 A 21.512 21.512 0 0 0 20.128 19.056 A 23.097 23.097 0 0 0 19.45 24.7 A 14.252 14.252 0 0 0 19.52 26.151 Q 19.801 28.891 21.2 30.45 A 5.106 5.106 0 0 0 22.765 31.621 Q 23.624 32.044 24.724 32.237 Z M 330.1 31.35 L 333.6 11.45 L 331 11.2 L 331.15 10.25 A 213.109 213.109 0 0 1 331.953 10.051 Q 334.043 9.537 334.701 9.429 A 1.781 1.781 0 0 1 334.95 9.4 A 0.2 0.2 0 0 1 335.03 9.422 Q 335.196 9.497 335.538 9.838 A 7.537 7.537 0 0 1 335.55 9.85 A 4.529 4.529 0 0 1 335.688 9.993 Q 335.992 10.325 335.95 10.45 L 332.45 30.35 L 335.05 30.6 L 334.9 31.55 Q 333.7 31.85 332.65 32.1 Q 331.821 32.297 331.335 32.37 A 4.892 4.892 0 0 1 331.1 32.4 Q 330.9 32.4 330.5 31.975 A 3.86 3.86 0 0 1 330.347 31.803 Q 330.1 31.507 330.1 31.35 Z M 26.45 30.7 A 4.033 4.033 0 0 0 26.921 30.674 Q 27.312 30.628 27.6 30.5 A 4.767 4.767 0 0 0 28.048 30.321 Q 28.735 30.011 29.8 29.35 Q 31.006 28.602 31.624 28.026 A 4.249 4.249 0 0 0 31.85 27.8 A 13.2 13.2 0 0 0 32.839 25.744 Q 33.238 24.707 33.539 23.494 A 23.932 23.932 0 0 0 33.7 22.8 A 28.683 28.683 0 0 0 34.28 18.882 A 24.386 24.386 0 0 0 34.35 17.05 A 9.943 9.943 0 0 0 34.2 15.269 Q 34.021 14.284 33.626 13.497 A 5.151 5.151 0 0 0 33.075 12.625 A 4.127 4.127 0 0 0 30.468 11.095 A 6.249 6.249 0 0 0 29.35 11 A 3.236 3.236 0 0 0 28.588 11.098 Q 28.229 11.186 27.832 11.35 A 7.975 7.975 0 0 0 27.1 11.7 A 6.189 6.189 0 0 0 25.754 12.684 Q 24.645 13.726 23.591 15.509 A 20.881 20.881 0 0 0 23.45 15.75 A 11.062 11.062 0 0 0 22.418 18.291 Q 21.7 20.866 21.7 24.55 A 11.233 11.233 0 0 0 21.822 26.262 Q 22.091 28 22.95 29.1 Q 24.2 30.7 26.45 30.7 Z M 86.25 18.3 L 87.35 11.95 Q 84.45 11.1 83.05 11.1 A 5.007 5.007 0 0 0 81.445 11.353 A 4.617 4.617 0 0 0 80.85 11.6 Q 80.102 11.974 79.274 12.763 A 13.164 13.164 0 0 0 78.475 13.6 A 8.351 8.351 0 0 0 77.564 14.877 Q 77.165 15.556 76.804 16.396 A 19.915 19.915 0 0 0 76.25 17.85 A 16.277 16.277 0 0 0 75.618 20.444 Q 75.402 21.76 75.333 23.276 A 32.384 32.384 0 0 0 75.3 24.75 Q 75.3 27.5 75.925 28.975 A 2.521 2.521 0 0 0 76.497 29.83 Q 76.98 30.29 77.712 30.409 A 3.362 3.362 0 0 0 78.25 30.45 Q 78.85 30.45 86.25 18.3 Z M 129.95 18.3 L 131.05 11.95 Q 128.15 11.1 126.75 11.1 A 5.007 5.007 0 0 0 125.145 11.353 A 4.617 4.617 0 0 0 124.55 11.6 Q 123.802 11.974 122.974 12.763 A 13.164 13.164 0 0 0 122.175 13.6 A 8.351 8.351 0 0 0 121.264 14.877 Q 120.865 15.556 120.504 16.396 A 19.915 19.915 0 0 0 119.95 17.85 A 16.277 16.277 0 0 0 119.318 20.444 Q 119.102 21.76 119.033 23.276 A 32.384 32.384 0 0 0 119 24.75 Q 119 27.5 119.625 28.975 A 2.521 2.521 0 0 0 120.197 29.83 Q 120.68 30.29 121.412 30.409 A 3.362 3.362 0 0 0 121.95 30.45 Q 122.55 30.45 129.95 18.3 Z M 44.95 23.6 L 43.85 29.75 Q 46.235 30.518 47.705 30.665 A 6.509 6.509 0 0 0 48.35 30.7 Q 49.6 30.7 50.45 30.2 A 5.249 5.249 0 0 0 51.278 29.675 Q 51.666 29.379 52.072 28.981 A 12.849 12.849 0 0 0 52.8 28.2 A 8.614 8.614 0 0 0 53.681 26.953 Q 54.067 26.299 54.422 25.492 A 20.835 20.835 0 0 0 55.025 23.95 Q 56 21.15 56 17.05 Q 56 14.46 55.403 12.969 A 5.273 5.273 0 0 0 55.375 12.9 Q 54.863 11.67 53.594 11.449 A 3.453 3.453 0 0 0 53 11.4 A 0.301 0.301 0 0 0 52.838 11.492 Q 52.467 11.817 51.488 13.282 A 61.867 61.867 0 0 0 51 14.025 Q 49.3 16.65 47.65 19.25 A 701.286 701.286 0 0 0 47.073 20.16 Q 45.916 21.991 45.55 22.6 Q 45.354 22.991 44.968 23.574 A 18.468 18.468 0 0 1 44.95 23.6 Z M 295.6 23.6 L 294.5 29.75 Q 296.885 30.518 298.355 30.665 A 6.509 6.509 0 0 0 299 30.7 Q 300.25 30.7 301.1 30.2 A 5.249 5.249 0 0 0 301.928 29.675 Q 302.316 29.379 302.722 28.981 A 12.849 12.849 0 0 0 303.45 28.2 A 8.614 8.614 0 0 0 304.331 26.953 Q 304.717 26.299 305.072 25.492 A 20.835 20.835 0 0 0 305.675 23.95 Q 306.65 21.15 306.65 17.05 Q 306.65 14.46 306.053 12.969 A 5.273 5.273 0 0 0 306.025 12.9 Q 305.513 11.67 304.244 11.449 A 3.453 3.453 0 0 0 303.65 11.4 A 0.301 0.301 0 0 0 303.488 11.492 Q 303.117 11.817 302.138 13.282 A 61.867 61.867 0 0 0 301.65 14.025 Q 299.95 16.65 298.3 19.25 A 701.286 701.286 0 0 0 297.723 20.16 Q 296.566 21.991 296.2 22.6 Q 296.004 22.991 295.618 23.574 A 18.468 18.468 0 0 1 295.6 23.6 Z M 265.1 11.7 A 6.582 6.582 0 0 0 263.98 12.517 Q 263.025 13.366 262.05 14.75 A 9.813 9.813 0 0 0 260.965 16.804 Q 260.557 17.834 260.276 19.085 A 22.289 22.289 0 0 0 259.95 20.9 A 13.834 13.834 0 0 0 263.386 20.297 A 12.113 12.113 0 0 0 265.125 19.6 A 12.305 12.305 0 0 0 266.963 18.493 A 8.956 8.956 0 0 0 268.75 16.775 Q 270 15.165 270.048 13.531 A 4.444 4.444 0 0 0 270.05 13.4 A 2.911 2.911 0 0 0 269.897 12.414 Q 269.407 11.05 267.35 11.05 A 4.22 4.22 0 0 0 265.549 11.463 A 5.227 5.227 0 0 0 265.1 11.7 Z M 365.05 11.7 A 6.582 6.582 0 0 0 363.93 12.517 Q 362.975 13.366 362 14.75 A 9.813 9.813 0 0 0 360.915 16.804 Q 360.507 17.834 360.226 19.085 A 22.289 22.289 0 0 0 359.9 20.9 A 13.834 13.834 0 0 0 363.336 20.297 A 12.113 12.113 0 0 0 365.075 19.6 A 12.305 12.305 0 0 0 366.913 18.493 A 8.956 8.956 0 0 0 368.7 16.775 Q 369.95 15.165 369.998 13.531 A 4.444 4.444 0 0 0 370 13.4 A 2.911 2.911 0 0 0 369.847 12.414 Q 369.357 11.05 367.3 11.05 A 4.22 4.22 0 0 0 365.499 11.463 A 5.227 5.227 0 0 0 365.05 11.7 Z M 334.45 5.15 L 334.85 1.3 L 336.9 1.1 L 337.3 1.8 L 336.35 5.15 L 334.45 5.15 Z" vector-effect="non-scaling-stroke"/></g></svg>